<?xml version="1.0" standalone="no"?>
<!DOCTYPE svg PUBLIC "-//W3C//DTD SVG 20010904//EN"
 "http://www.w3.org/TR/2001/REC-SVG-20010904/DTD/svg10.dtd">
<svg version="1.0" xmlns="http://www.w3.org/2000/svg"
 width="400.000000pt" height="400.000000pt" viewBox="0 0 400.000000 400.000000"
 preserveAspectRatio="xMidYMid meet">
<metadata>
Created by potrace 1.16, written by Peter Selinger 2001-2019
</metadata>
<g transform="translate(0.000000,400.000000) scale(0.100000,-0.100000)"
fill="#000000" stroke="none">
<path d="M2128 3414 c-46 -14 -113 -68 -135 -108 -10 -17 -14 -15 -49 24 -79
87 -180 94 -251 18 -27 -29 -62 -105 -63 -135 0 -23 -14 -31 -24 -14 -3 5 -26
18 -51 30 -78 36 -173 24 -221 -30 -41 -46 -54 -130 -29 -191 6 -16 0 -18 -57
-18 -74 0 -103 -16 -124 -66 -24 -57 -17 -123 22 -211 19 -42 19 -43 -18 -43
-47 0 -110 -39 -130 -80 -22 -43 -23 -109 -3 -156 8 -20 43 -66 79 -102 74
-78 117 -145 141 -222 17 -53 16 -59 -4 -152 -12 -54 -21 -100 -21 -103 0 -3
-24 -5 -54 -5 -99 0 -152 -37 -186 -127 -37 -99 -19 -196 52 -289 63 -84 158
-134 158 -84 0 11 -4 20 -9 20 -12 0 -96 70 -84 70 4 0 0 5 -9 11 -29 17 -60
99 -62 164 -1 65 23 131 52 143 9 3 23 12 31 20 14 14 84 12 98 -2 11 -10 8
-126 -2 -126 -5 0 -5 -4 2 -8 6 -4 11 -18 10 -32 -4 -127 53 -356 128 -515 97
-205 267 -381 448 -464 204 -93 443 -72 641 56 139 90 280 254 345 403 13 30
32 74 43 98 10 24 21 56 24 72 5 21 21 38 64 64 93 58 147 112 182 184 30 60
33 75 33 154 0 49 3 88 8 88 4 0 7 -4 7 -10 0 -5 11 -10 24 -10 31 0 102 79
116 129 26 94 5 139 -82 174 -35 14 -108 44 -163 67 -55 23 -147 61 -205 85
-58 24 -159 65 -225 93 l-120 50 -140 -12 -140 -11 -3 -27 c-2 -20 6 -36 32
-63 20 -20 36 -41 36 -47 0 -6 3 -9 6 -5 6 6 64 -45 64 -57 0 -15 27 -33 105
-72 44 -21 83 -43 86 -47 3 -5 10 -9 15 -9 13 1 73 -29 79 -38 3 -4 -114 -7
-259 -7 -145 0 -268 -3 -275 -7 -6 -4 -11 -2 -11 3 0 18 -48 -30 -60 -60 -14
-33 -55 -41 -64 -11 -3 9 -16 28 -28 42 l-23 25 -230 -2 c-282 -3 -331 -8
-363 -40 -13 -13 -27 -22 -30 -19 -8 8 20 146 29 146 5 0 6 6 4 13 -3 6 3 26
14 43 21 34 101 104 120 104 6 0 11 4 11 9 0 5 15 14 34 21 27 8 33 15 31 35
-2 13 1 41 5 62 5 21 12 54 15 73 3 19 8 37 11 40 3 3 224 6 490 8 l484 3 0
-43 1 -43 207 -84 c114 -46 258 -106 321 -133 112 -48 148 -54 104 -18 -30 24
-29 30 13 71 102 96 121 196 48 244 l-23 15 54 80 c69 101 82 143 64 201 -17
52 -53 80 -113 86 -25 3 -46 9 -46 14 0 5 7 27 16 49 19 47 14 116 -11 154
-26 39 -79 59 -146 54 l-59 -4 0 50 c0 97 -61 166 -147 166 -46 0 -106 -20
-134 -46 -15 -13 -17 -11 -23 27 -13 84 -63 131 -139 131 -53 0 -84 -12 -127
-48 -21 -18 -35 -24 -37 -17 -8 24 -45 64 -71 77 -45 22 -75 25 -124 10z m392
-1186 c0 -7 13 -13 30 -14 33 -1 53 -14 33 -21 -7 -3 -13 -9 -13 -15 0 -14 30
-41 38 -34 3 4 0 11 -7 15 -7 5 -10 14 -7 20 11 16 26 13 26 -5 0 -13 3 -14
14 -5 11 9 19 9 35 -1 12 -7 21 -17 21 -21 0 -5 8 -6 18 -3 10 4 27 -1 38 -9
10 -8 27 -15 36 -15 11 0 15 -5 12 -15 -4 -8 -1 -15 5 -15 6 0 11 5 11 10 0
13 42 -7 52 -25 4 -7 18 -10 31 -8 14 3 31 -2 40 -11 8 -9 21 -16 27 -16 6 0
8 -5 5 -10 -4 -7 2 -9 17 -5 17 4 29 0 42 -14 10 -11 24 -17 34 -14 11 5 14 2
9 -10 -3 -9 -2 -17 2 -17 5 0 11 5 13 11 4 11 58 -12 61 -27 1 -5 12 -7 25 -6
19 3 22 -1 22 -32 0 -27 -3 -34 -15 -30 -8 4 -15 1 -15 -5 0 -6 5 -11 10 -11
19 0 10 -19 -33 -64 -44 -48 -57 -55 -57 -32 0 7 -7 19 -15 26 -8 7 -15 23
-15 36 0 14 -6 24 -15 24 -9 0 -12 6 -8 17 5 13 2 15 -11 10 -14 -6 -17 -3
-12 9 4 12 2 15 -9 10 -17 -6 -65 12 -65 25 0 5 -7 6 -15 3 -11 -5 -13 -2 -9
10 3 9 1 16 -5 16 -6 0 -11 -4 -11 -10 0 -14 -27 -12 -34 3 -5 10 -7 10 -12 0
-3 -7 -12 -13 -19 -13 -7 0 -16 6 -19 13 -5 10 -7 10 -12 0 -6 -15 -34 -18
-34 -4 0 5 -15 12 -33 15 -19 3 -43 15 -55 27 -12 11 -27 17 -32 14 -6 -3 -7
1 -4 9 7 18 -7 21 -22 6 -7 -7 -18 -3 -34 12 -14 13 -29 22 -34 20 -6 -2 -27
5 -48 15 -37 18 -49 38 -27 45 7 2 13 19 14 37 2 19 9 38 16 43 11 7 11 11 2
15 -18 7 -16 33 2 33 8 0 15 -6 15 -12z m135 -365 c20 -19 17 -50 -20 -199
-33 -139 -21 -134 -286 -134 -157 0 -220 3 -232 13 -9 6 -26 38 -36 70 l-20
58 25 9 c45 18 108 24 100 11 -4 -6 -13 -11 -19 -10 -44 5 -52 -31 -12 -57 35
-23 72 -11 97 32 16 28 25 34 42 30 54 -16 72 -16 91 -2 19 14 19 15 -10 26
-86 34 -196 35 -302 4 -19 -5 -22 -1 -29 43 -11 72 -9 104 7 114 8 5 143 9
301 9 254 0 288 -2 303 -17z m261 2 c43 -18 90 -66 110 -114 21 -47 14 -156
-12 -202 -30 -55 -115 -131 -184 -168 l-65 -34 -24 -74 c-14 -41 -29 -77 -33
-79 -5 -3 -6 -10 -2 -15 3 -6 -2 -19 -13 -31 -10 -11 -17 -22 -16 -24 4 -8
-47 -110 -67 -134 -11 -14 -34 -44 -50 -68 -19 -27 -35 -40 -43 -36 -7 4 -9 4
-5 0 19 -22 -124 -138 -235 -191 -108 -51 -244 -66 -377 -43 -63 11 -170 56
-170 71 0 6 -3 7 -7 4 -3 -4 -12 -2 -20 4 -7 6 -13 8 -13 5 0 -4 -6 -1 -14 6
-8 7 -31 27 -52 43 -40 32 -79 71 -129 129 -46 53 -51 59 -76 107 -13 24 -26
46 -29 49 -13 13 -31 53 -26 57 3 4 0 11 -8 17 -12 11 -45 92 -56 141 -1 6 -6
17 -11 26 -4 9 -11 31 -14 50 -3 19 -10 49 -16 67 -6 18 -9 36 -6 38 2 3 1 22
-4 42 -10 42 -13 231 -4 240 12 13 24 -16 26 -68 1 -30 5 -59 9 -65 12 -17 18
-65 7 -65 -5 0 8 -16 29 -35 42 -38 23 -36 267 -37 59 0 87 -4 87 -11 0 -9 2
-9 8 -1 4 6 34 11 67 12 100 0 99 0 118 40 10 21 20 51 23 67 2 17 12 57 22
90 15 51 22 60 43 63 24 3 28 -3 48 -65 40 -126 62 -172 85 -179 36 -12 521
-7 545 5 23 13 37 35 45 72 20 87 42 164 48 167 5 2 6 8 2 13 -3 5 0 25 6 45
9 26 22 39 53 53 79 36 85 36 133 16z m-1050 -30 c6 -24 3 -43 -34 -199 -25
-108 -19 -106 -246 -106 -235 0 -228 -3 -251 119 -21 115 -20 187 3 200 10 6
117 11 269 11 l253 0 6 -25z"/>
<path d="M1898 1520 c-9 -6 -33 -33 -54 -61 -44 -60 -52 -123 -19 -155 54 -55
125 -72 144 -35 8 14 7 19 -2 18 -30 -1 -77 17 -97 38 -20 21 -21 27 -11 58 7
19 22 46 34 59 13 14 23 38 23 56 1 18 1 32 0 32 0 0 -9 -5 -18 -10z"/>
<path d="M2096 1055 c-10 -8 -23 -12 -27 -9 -5 3 -9 0 -9 -5 0 -6 -3 -10 -7
-9 -5 1 -21 -4 -36 -10 -16 -7 -59 -12 -97 -12 -64 0 -68 -1 -63 -21 7 -26 14
-29 88 -32 83 -5 207 43 218 82 8 31 -33 41 -67 16z"/>
<path d="M1550 1711 c-47 -11 -87 -28 -94 -40 -10 -15 12 -23 33 -12 10 6 45
13 77 15 33 3 49 3 36 0 -31 -7 -38 -30 -17 -54 27 -30 71 -25 107 11 25 24
36 29 60 24 27 -6 58 7 58 24 0 24 -191 48 -260 32z"/>
</g>
</svg>
